<svg id="magicoon-Bold" xmlns="http://www.w3.org/2000/svg" viewBox="0 0 24 24"><defs><style>.cls-1{fill:#41416e;}</style></defs><title>stopwatch</title><g id="stopwatch-Bold"><path id="stopwatch-Bold-2" data-name="stopwatch-Bold" class="cls-1" d="M18.443,7.971l1.264-1.264a1,1,0,1,0-1.414-1.414L16.968,6.618A8.444,8.444,0,0,0,13,5.064V4h1a1,1,0,0,0,0-2H10a1,1,0,0,0,0,2h1V5.064a8.514,8.514,0,1,0,7.443,2.907ZM12,20a6.5,6.5,0,1,1,6.5-6.5A6.508,6.508,0,0,1,12,20Zm2.781-4.625a1,1,0,0,1-1.562,1.25l-2-2.5A1,1,0,0,1,11,13.5V10a1,1,0,0,1,2,0v3.149Z"/></g></svg>